# xmcd
#
# Track frame offsets: 
#        150
#        18950
#        38952
#        57237
#        75505
#        95297
#        120185
#        137887
#        154050
#        173627
#
# Disc length: 2544 seconds
#
# Revision: 5
# Processed by: cddbd v1.5.2PL0 Copyright (c) Steve Scherf et al.
# Submitted via: ExactAudioCopy v0.95b4
#
DISCID=6e09ee0a
DTITLE=Enrique Iglesias - Enrique Iglesias
DYEAR=1995
DGENRE=Pop
TTITLE0=No llores por mi
TTITLE1=Trapecista
TTITLE2=Por amarte
TTITLE3=Si tú te vas
TTITLE4=Si juras regresar
TTITLE5=Experiencia religiosa
TTITLE6=Falta tanto amor
TTITLE7=Inalcanzable
TTITLE8=Muñeca cruel
TTITLE9=Invéntame
EXTD=
EXTT0=
EXTT1=
EXTT2=
EXTT3=
EXTT4=
EXTT5=
EXTT6=
EXTT7=
EXTT8=
EXTT9=
PLAYORDER=
